<svg width="25" height="25" viewBox="0 0 25 25" fill="none" xmlns="http://www.w3.org/2000/svg">
<path d="M22.4788 10.5415H21.6733V10.5H12.6733V14.5H18.3248C17.5003 16.8285 15.2848 18.5 12.6733 18.5C9.35984 18.5 6.67334 15.8135 6.67334 12.5C6.67334 9.1865 9.35984 6.5 12.6733 6.5C14.2028 6.5 15.5943 7.077 16.6538 8.0195L19.4823 5.191C17.6963 3.5265 15.3073 2.5 12.6733 2.5C7.15084 2.5 2.67334 6.9775 2.67334 12.5C2.67334 18.0225 7.15084 22.5 12.6733 22.5C18.1958 22.5 22.6733 18.0225 22.6733 12.5C22.6733 11.8295 22.6043 11.175 22.4788 10.5415Z" fill="#FFC107"/>
<path d="M3.82617 7.8455L7.11167 10.255C8.00067 8.054 10.1537 6.5 12.6732 6.5C14.2027 6.5 15.5942 7.077 16.6537 8.0195L19.4822 5.191C17.6962 3.5265 15.3072 2.5 12.6732 2.5C8.83217 2.5 5.50117 4.6685 3.82617 7.8455Z" fill="#FF3D00"/>
<path d="M12.6735 22.4999C15.2565 22.4999 17.6035 21.5114 19.378 19.9039L16.283 17.2849C15.279 18.0454 14.031 18.4999 12.6735 18.4999C10.0725 18.4999 7.864 16.8414 7.032 14.5269L3.771 17.0394C5.426 20.2779 8.787 22.4999 12.6735 22.4999Z" fill="#4CAF50"/>
<path d="M22.4788 10.5415H21.6733V10.5H12.6733V14.5H18.3248C17.9288 15.6185 17.2093 16.583 16.2813 17.2855L16.2828 17.2845L19.3778 19.9035C19.1588 20.1025 22.6733 17.5 22.6733 12.5C22.6733 11.8295 22.6043 11.175 22.4788 10.5415Z" fill="#1976D2"/>
</svg>
