<svg width="580" height="449" viewBox="0 0 580 449" fill="none" xmlns="http://www.w3.org/2000/svg">
<path d="M10.5894 236.191C52.9966 192.144 205.93 409.27 160.719 436.577C115.508 463.884 -22.3541 170.068 79.7372 173.074C181.829 176.08 147.079 277.405 149.463 280.188C151.847 282.971 306.969 258.638 229.243 386.742C151.516 514.846 206.061 197.813 235.347 188.308C264.634 178.804 259.296 384.192 330.047 358.007C377.255 340.535 149.784 -18.8733 270.724 64.4851C320.625 98.8793 352.951 338.262 423.678 312.124C494.405 285.987 229.622 -23.0244 344.6 13.5005C437.231 42.9266 434.903 292.651 522.525 250.595C549.25 237.768 555.015 208.616 569.355 182.672M195.86 146.135L213.398 156.335V137.606" stroke="white" stroke-width="20" stroke-linecap="round" stroke-linejoin="round"/>
</svg>
